<svg width="192" height="48" xmlns="http://www.w3.org/2000/svg"><path d="M24.031 46.146c12.251 0 22.18-9.915 22.18-22.146 0-12.232-9.929-22.146-22.18-22.146C11.784 1.854 1.858 11.768 1.858 24c0 12.23 9.926 22.146 22.173 22.146zm0-46.146C37.31 0 48.068 10.746 48.068 24s-10.76 24-24.037 24C10.761 48 0 37.254 0 24S10.76 0 24.031 0zm0 42c-.832 0-1.335-.559-1.364-1.323-.183.344-.418.578-.772.649a1.77 1.77 0 01-1.043-.12 1.4 1.4 0 01-.739-.694c-.159-.322-.106-.655.007-1.041-.391.561-1.053.707-1.636.436-.798-.372-1.09-1.05-.762-1.824.987-2.34 1.967-4.639 2.958-6.977.09-.212.165-.43.265-.642.088-.187.144-.325.227-.438a.8.8 0 01.233-.211c-1.532.168-2.269.771-2.674 1.04-.108.07-.102.08-.515-.048a.723.723 0 00-.55.06 4.083 4.083 0 00-.537.341c-.55.429-1.11.842-1.63 1.305-.241.216-.59.584-.542.917.038.308.792 1.023 1.017 1.235.534.506-.274 1.456-1.351 1.365.287-.3.354-.557.318-.783-.107-.001-.313.02-.506-.155-.233-.209-.129-.826-.344-1.036-.38-.369-1.62-.403-2.36-.434-.312-.013-.638-.097-.615-.581-.47.031-.57.381-.57.697-.404-.229-.752-1.327.746-1.577-.253-.229-.673-.313-.932-.021-.243-.402.373-1.195 1.48-.748-.003-.003.498-.658 1.996 1.018.188-.142.376-.282.548-.441.58-.527 2.04-1.955 2.04-1.955 0-.801.12-2.356 1.181-3.288.452-.398.885-.609 1.842-.78 0 0-.462-.725-.535-1.01-.835.833-2.511 1.082-2.511-.324-1.367 1.365-2.636.63-2.636-.228-.044.418-.15.878-.292 1.273-.172.46-.798 2.223-2.414 2.223-.037.613-.04 2.628-1.971 3.079-.082.02-.19.048-.241.112-.78.968-4.022 1.987-4.418 1.712.25-.18.648-.418.712-1.556.04-.751.122-4.646.122-10.133 0-1.941.21-8.233 6.438-9.11.945-.132 1.874-.062 2.68.534 1.096.818 1.635 2.195.99 3.754-.02.057-.037.111-.066.16-.22.371-.13.692.155.977.52.515 1.126.864 1.855.949.46.052.841-.15 1.145-.465.7-.72 1.174-1.564 1.345-2.557.325-1.884-.18-2.83-.207-2.89-.507-1.014-1.583-1.759-2.83-1.865-.571-1.067-2.211-.644-2.211-.644-.41.089-.555.205-.658.408 0 0-.72-1.094-.042-1.534.68-.44 2.196-.62 2.196-.62 0-.713 1.18-1.268 3.312-.887 2.579.46 3.132-.547 3.132-.547.109 1.232-.835 1.868-1.136 2.04.977 1.06 2.344 3.178 2.67 6.184.326-3.006 1.693-5.124 2.67-6.184-.3-.172-1.244-.808-1.136-2.04 0 0 .554 1.007 3.132.547 2.132-.38 3.313.174 3.313.887 0 0 1.516.18 2.195.62.678.44-.042 1.534-.042 1.534-.102-.203-.247-.32-.657-.408 0 0-1.64-.423-2.211.644-1.248.106-2.323.85-2.83 1.866-.028.06-.502.997-.208 2.89.155.994.646 1.837 1.345 2.556.305.316.685.517 1.146.465.728-.085 1.334-.434 1.854-.95.285-.284.375-.605.156-.975-.03-.05-.046-.104-.066-.16-.646-1.56-.106-2.937.99-3.755.805-.596 1.735-.666 2.68-.534 6.228.877 6.438 7.169 6.438 9.11 0 5.487.082 9.382.122 10.133.063 1.138.46 1.375.712 1.556-.397.275-3.638-.744-4.418-1.712-.052-.064-.16-.093-.242-.112-1.93-.451-1.933-2.466-1.97-3.08-1.616 0-2.242-1.762-2.415-2.222a5.592 5.592 0 01-.291-1.273c0 .857-1.27 1.593-2.636.228 0 1.406-1.677 1.157-2.511.324-.074.285-.536 1.01-.536 1.01.957.171 1.39.382 1.842.78 1.06.932 1.181 2.487 1.181 3.288 0 0 1.461 1.428 2.04 1.955.172.159.36.299.548.44 1.498-1.675 2-1.02 1.996-1.017 1.108-.447 1.723.346 1.48.748-.258-.292-.678-.208-.931.02v.001c1.497.25 1.15 1.348.745 1.577 0-.316-.099-.666-.57-.697.024.484-.303.568-.614.58-.741.032-1.981.066-2.36.435-.216.21-.112.827-.344 1.036-.193.174-.4.154-.507.155-.035.226.032.483.319.783-1.078.09-1.886-.86-1.351-1.365.224-.212.978-.927 1.016-1.235.048-.333-.3-.701-.542-.917-.52-.463-1.08-.876-1.63-1.305a4.083 4.083 0 00-.537-.342.723.723 0 00-.55-.06c-.413.13-.406.12-.514.048-.407-.268-1.142-.871-2.675-1.04a.8.8 0 01.233.212c.083.113.14.25.228.438.099.212.175.43.265.642.99 2.338 1.97 4.637 2.957 6.977.328.774.036 1.452-.761 1.824-.584.271-1.245.125-1.637-.436.113.386.166.719.007 1.041a1.397 1.397 0 01-.739.693 1.77 1.77 0 01-1.043.12c-.354-.07-.589-.304-.771-.648-.03.764-.533 1.324-1.365 1.324zm38.376-11.748a56.58 56.58 0 002.015.048c2.802 0 4.432-1.306 4.432-3.745 0-2.63-1.94-3.483-6.447-3.483v7.18zm2.256-15.639c1.324 0 4.026-.118 5.569-.213a7.44 7.44 0 00-.07.853c0 .166.05.546.07.806-1.378-.19-3.654-.33-4.362-.33-.496 0-2.42.045-3.463.14v5.949h1.208c2.47 0 7.668.473 7.668 4.76 0 3.482-2.92 5.07-6.761 5.048-.43 0-2.04-.07-3.067-.07-.447 0-.993.022-1.374.07.145-2.607.19-6.21.19-9.195 0-2.676-.02-6.727-.19-8.03 1.52.071 4.03.212 4.582.212zm15.695 10.9l-1.569.235c-1.708.262-3.608.853-3.608 2.657 0 1.372.762 2.108 2.301 2.108.952 0 1.9-.333 2.876-1.35v-3.65zm-6.385-4.478c.927-1.136 2.632-1.632 4.06-1.632 2.49 0 4.22 1.229 4.22 4.19v5.876c0 1.209.26 1.492.757 1.492.17 0 .43-.048.571-.096l.141.57a4.223 4.223 0 01-1.78.452c-.782 0-1.278-.356-1.469-1.044l-.14-.518c-1.283 1.018-2.682 1.562-3.844 1.562-2.16 0-3.563-1.139-3.563-3.129 0-2.132 1.593-3.128 3.774-3.529l2.416-.45c.812-.143 1.242-.38 1.242-.971 0-2.584-1.093-3.246-2.896-3.246-1.4 0-2.447.402-3.203 1.944h-.286v-1.471zm13.002-1.327c.26 0 .757-.047 1.112-.07-.19 1.798-.214 4.783-.214 4.903.997.048 2.44.095 3.206.095.782 0 2.277-.047 2.988-.095 0-.143-.025-3.126-.21-4.903.397.023.922.07 1.203.07.265 0 .762-.047 1.118-.07-.19 1.777-.216 4.76-.216 5.992 0 .996.025 4.194.216 5.996a8.455 8.455 0 00-1.093-.07c-.401 0-.877.023-1.229.07.186-1.802.211-5 .211-5.756-1.042-.075-2.466-.168-3.012-.168-.646 0-2.23.046-3.182.118 0 .806.025 4.004.214 5.806a8.49 8.49 0 00-1.092-.07c-.401 0-.877.023-1.233.07.186-1.802.211-5 .211-5.996 0-1.209-.025-4.215-.211-5.992.401.023.927.07 1.213.07zm13.638 0c.257 0 .758-.047 1.109-.07-.186 1.777-.206 4.783-.206 5.213h.38c.783 0 4.792-4.552 5.173-5.213.33.023.873.07 1.159.07.24 0 .81-.047 1.162-.07l-5.669 5.07c.716.852 4.481 5.093 6.19 6.918a20.47 20.47 0 00-1.418-.07c-.431 0-1.073.023-1.57.07-.876-1.374-3.558-4.525-5.027-6.138h-.38c0 .877.02 4.336.206 6.138a8.325 8.325 0 00-1.088-.07c-.397 0-.873.023-1.233.07.195-1.802.22-5 .22-5.996 0-1.209-.025-4.215-.22-5.992.406.023.927.07 1.212.07zm20.705 2.843c3.323 0 5.272-1.326 5.272-3.839 0-2.345-1.854-2.983-4.155-2.983-.401 0-1.779.022-2.114.07v6.655c.29.052.761.097.997.097zm-.923-8.078c.828 0 1.9-.073 2.512-.073 4.39 0 6.1 1.329 6.1 4.312 0 3.864-3.253 5.095-7.114 5.095a24.24 24.24 0 01-1.572-.095v4.098c0 1.184.05 2.63.195 3.816a11.5 11.5 0 00-2.52 0c.144-2.608.194-6.209.194-9.194 0-2.676-.025-6.728-.195-8.032.786.023 1.854.073 2.4.073zM131.61 25.82c0 2.677 1.117 5.14 3.63 5.14 2.42 0 3.868-2.322 3.868-5.496 0-2.558-.997-5.14-3.678-5.14-2.562 0-3.82 2.677-3.82 5.496zm9.754-.26c0 3.625-2.355 6.326-6.075 6.326-3.654 0-5.934-2.676-5.934-5.994 0-3.932 2.516-6.49 6.145-6.49 3.608 0 5.864 2.605 5.864 6.158zm11.628-3.341h-.286c-.832-1.35-1.99-1.895-3.298-1.895-2.777 0-4.105 2.678-4.105 5.283 0 3.009 1.66 5.354 4.602 5.354.976 0 1.853-.14 3.227-1.635l.215.261-.285 1.161c-1.143.76-2.417 1.139-3.89 1.139-3.704 0-6.124-2.583-6.124-6.232 0-3.815 2.61-6.252 6.43-6.252 1.238 0 2.587.235 4.105 1.041l-.591 1.775zm11.975 0h-.282c-.827-1.35-1.99-1.895-3.293-1.895-2.781 0-4.11 2.678-4.11 5.283 0 3.009 1.669 5.354 4.606 5.354.968 0 1.85-.14 3.224-1.635l.21.261-.28 1.161c-1.139.76-2.421 1.139-3.89 1.139-3.7 0-6.12-2.583-6.12-6.232 0-3.815 2.61-6.252 6.43-6.252 1.233 0 2.586.235 4.105 1.041l-.6 1.775zm3.517 9.337c-.145 0-.571.045-.761.07.19-1.802.215-5 .215-5.996 0-1.21-.025-4.215-.215-5.992.405.023.922.07 1.208.07.26 0 .757-.047 1.118-.07-.19 1.777-.211 4.76-.211 5.992 0 .996.02 2.392.045 3.056 1.303-1.585 5.955-7.484 7.072-9.048.256.045.422.07.707.07.14 0 .637-.047.907-.07-.195 1.777-.22 4.76-.22 5.992 0 .996.025 4.194.22 5.995a8.627 8.627 0 00-1.093-.07c-.406 0-.877.023-1.237.07.19-1.8.215-5 .215-5.995a108.6 108.6 0 00-.046-3.246c-1.618 1.636-5.888 7.227-7.237 9.241a3.116 3.116 0 00-.687-.07zm13.437 0a9.4 9.4 0 00-.758.07c.186-1.802.211-5 .211-5.996 0-1.21-.025-4.215-.21-5.992.4.023.918.07 1.203.07.261 0 .762-.047 1.118-.07-.19 1.777-.212 4.76-.212 5.992 0 .996.021 2.392.046 3.056 1.304-1.585 5.95-7.484 7.068-9.048.26.045.426.07.712.07.14 0 .641-.047.902-.07-.187 1.777-.212 4.76-.212 5.992 0 .996.025 4.194.212 5.995a8.51 8.51 0 00-1.093-.07c-.401 0-.877.023-1.229.07.19-1.8.211-5 .211-5.995 0-1.231-.02-2.746-.045-3.246-1.614 1.636-5.889 7.227-7.242 9.241a3.049 3.049 0 00-.682-.07z" fill="#FFF" fill-rule="evenodd"/></svg>